<svg id="Слой_1" data-name="Слой 1" xmlns="http://www.w3.org/2000/svg" viewBox="0 0 316.03 223.18"><defs><style>.cls-1,.cls-2{fill:none;stroke:#c6c6c6;stroke-miterlimit:10;stroke-width:4px;}.cls-2{stroke-linecap:round;}</style></defs><g id="Слой_2" data-name="Слой 2"><ellipse class="cls-1" cx="91.72" cy="170.55" rx="11.2" ry="8.7"/><path class="cls-2" d="M78.06,195.58s7.6-11.7,14.2-11.7,15.8,12.1,15.8,12.1" transform="translate(-1.04 -1.03)"/><line class="cls-2" x1="5.22" y1="165.05" x2="39.62" y2="165.05"/><line class="cls-2" x1="13.92" y1="182.75" x2="39.62" y2="182.75"/><line class="cls-2" x1="22.32" y1="195.55" x2="39.62" y2="195.55"/><path class="cls-1" d="M6.46,113.28s13.8-61.2,53.1-89.8c22.5-16.3,54.1-19.9,95.5-20.4s87.9,2.1,117.4,31.7c25.5,25.5,32.9,42.6,36.8,57.2,9.4,35.5,6.4,66.9-2,83.2-9.7,18.9-28.6,39.5-51.1,44.1s-87.8,2.4-87.8,2.4-23.4-2-27.5-9.1-5,.8-14.2,4.2c-22.7,8.5-65.6,1-65.6,1s-35.7-9.4-48.4-34.9C-.34,157,2.26,131.18,6.46,113.28Z" transform="translate(-1.04 -1.03)"/><path class="cls-1" d="M291.36,133.78s1,23.5-13.3,25.5-66.3-13.2-104.2-4.6c-11.2,2.6-30.1,17.8-33.7,28.6-3.4,10.2-4.9,25.3.6,29.2" transform="translate(-1.04 -1.03)"/><path class="cls-1" d="M96.26,220.68c-6.8.3-45.9,4.6-72.9-24.2-5.6-6-18.9-25.3-19.4-46.5-1.1-47.5,43.9-72.3,88.3-72.3,48.8,0,89.6,33.6,89.6,73.5" transform="translate(-1.04 -1.03)"/><path class="cls-2" d="M120.36,161a28.54,28.54,0,0,1,10.4-8.7,28.91,28.91,0,0,1,12.9-3" transform="translate(-1.04 -1.03)"/><path class="cls-1" d="M76.46,79s-5.4-20.5-10.3-25.9c-1.8-2-3.6-5-14.8-1.9S34.46,94,34.46,94" transform="translate(-1.04 -1.03)"/><path class="cls-1" d="M51.36,51.18s7.1,13.6,4.6,33.1" transform="translate(-1.04 -1.03)"/><path class="cls-1" d="M109.76,79.68s5.4-20.5,10.3-25.9c1.8-2,3.6-5,14.8-1.9S152,96.28,152,96.28" transform="translate(-1.04 -1.03)"/><path class="cls-1" d="M134.86,51.78s-7.1,13.6-4.6,33.1" transform="translate(-1.04 -1.03)"/><path class="cls-2" d="M62.76,161a28.54,28.54,0,0,0-10.4-8.7,28.91,28.91,0,0,0-12.9-3" transform="translate(-1.04 -1.03)"/></g></svg>